<?xml version="1.0" encoding="UTF-8"?>
<svg width="160px" height="32px" viewBox="0 0 160 32" version="1.1" xmlns="http://www.w3.org/2000/svg" xmlns:xlink="http://www.w3.org/1999/xlink">
    <!-- Generator: Sketch 52.2 (67145) - http://www.bohemiancoding.com/sketch -->
    <title>logo</title>
    <desc>Created with Sketch.</desc>
    <g id="logo" stroke="none" stroke-width="1" fill="none" fill-rule="evenodd">
        <g id="Group-2" fill="#000066" fill-rule="nonzero">
            <polygon id="Shape" points="13.674 31.236 13.674 30.49 22.011 17.068 16.112 17.068 15.109 19.779 14.266 19.779 14.266 16.049 24.79 16.049 24.79 16.707 16.453 30.104 22.627 30.104 24.084 27.391 24.859 27.391 24.471 31.236"></polygon>
            <path d="M25.916,19.621 L25.916,19.093 L31.688,19.093 L31.688,19.621 L29.869,20.343 L29.869,27.299 C29.869,29.408 30.887,30.4 32.975,30.4 C35.038,30.4 36.033,29.431 36.033,27.395 L36.033,20.343 L34.212,19.621 L34.212,19.093 L39.271,19.093 L39.271,19.621 L37.482,20.343 L37.482,27.104 C37.482,29.068 36.975,30.109 35.742,30.834 C34.892,31.289 34.018,31.479 32.562,31.479 C29.172,31.479 27.73,30.304 27.73,27.566 L27.73,20.198 L25.916,19.621 Z" id="Shape"></path>
            <polygon id="Shape" points="40.87 31.236 40.87 30.683 42.684 29.987 42.684 20.342 40.87 19.621 40.87 19.092 46.635 19.092 46.635 19.621 44.847 20.342 44.847 29.987 46.635 30.683 46.635 31.236"></polygon>
            <path d="M52.921,20.15 L54.855,20.15 C56.476,20.15 57.419,20.56 58.193,21.627 C58.847,22.499 59.161,23.614 59.161,25.091 C59.161,26.788 58.749,28 57.806,28.967 C56.935,29.865 56.138,30.156 54.614,30.156 L52.921,30.156 L52.921,20.15 Z M54.783,31.236 C56.694,31.236 58.049,30.876 59.161,30.084 C60.701,28.967 61.566,27.102 61.566,24.874 C61.566,23.177 61.061,21.821 60.027,20.708 C58.822,19.428 57.734,19.092 55.073,19.092 L48.944,19.092 L48.944,19.621 L50.758,20.342 L50.758,29.987 L48.944,30.683 L48.944,31.236 L54.783,31.236 Z" id="Shape"></path>
            <polygon id="Shape" points="69.938 11.73 69.938 17.727 71.874 18.523 71.874 19.086 65.861 19.086 65.861 18.523 67.797 17.727 67.797 5.26 65.861 4.465 65.861 3.902 71.874 3.902 71.874 4.465 69.938 5.26 69.938 10.599 77.016 10.599 77.016 5.26 75.104 4.465 75.104 3.902 81.094 3.902 81.094 4.465 79.181 5.26 79.181 17.727 81.094 18.523 81.094 19.086 75.104 19.086 75.104 18.523 77.016 17.727 77.016 11.73"></polygon>
            <path d="M88.397,7.751 C90.717,7.751 92.146,9.789 92.146,13.061 C92.146,16.239 90.717,18.25 88.494,18.25 C86.219,18.25 84.793,16.19 84.793,12.916 C84.793,9.667 86.124,7.751 88.397,7.751 M88.276,19.331 C92.001,19.331 94.527,16.651 94.527,12.699 C94.527,9.037 92.218,6.671 88.614,6.671 C84.913,6.671 82.412,9.376 82.412,13.329 C82.412,16.966 84.718,19.331 88.276,19.331" id="Shape"></path>
            <polygon id="Shape" points="96.283 19.086 96.283 18.535 98.097 17.836 98.097 8.194 96.283 7.472 96.283 6.944 102.05 6.944 102.05 7.472 100.261 8.194 100.261 18.127 103.427 18.127 104.612 15.85 105.361 15.85 105.047 19.086"></polygon>
            <polygon id="Shape" points="107.189 19.086 107.189 18.535 109.001 17.836 109.001 8.194 107.189 7.472 107.189 6.944 112.954 6.944 112.954 7.472 111.166 8.194 111.166 18.127 114.332 18.127 115.516 15.85 116.266 15.85 115.951 19.086"></polygon>
            <path d="M123.377,9.103 L123.617,9.732 L123.907,10.578 L124.921,13.427 L121.665,13.427 L123.377,9.103 Z M125.162,14.268 L126.415,17.836 L124.921,18.536 L124.921,19.086 L130.396,19.086 L130.396,18.536 L128.755,17.836 L124.632,6.83 L123.208,6.83 L118.621,17.836 L117,18.536 L117,19.086 L121.448,19.086 L121.448,18.536 L119.975,17.836 L121.304,14.268 L125.162,14.268 Z" id="Shape"></path>
            <polygon id="Shape" points="131.575 19.086 131.575 18.53 133.389 17.829 133.389 8.215 131.575 7.491 131.575 6.957 135.22 6.957 141.909 15.631 141.909 8.215 140.122 7.491 140.122 6.957 144.923 6.957 144.923 7.491 143.114 8.215 143.114 19.208 142.15 19.208 134.594 9.302 134.594 17.829 136.376 18.53 136.376 19.086"></polygon>
            <path d="M150.946,8.001 L152.881,8.001 C154.501,8.001 155.444,8.412 156.218,9.478 C156.873,10.349 157.186,11.464 157.186,12.943 C157.186,14.639 156.775,15.85 155.831,16.819 C154.96,17.715 154.163,18.006 152.64,18.006 L150.946,18.006 L150.946,8.001 Z M152.808,19.086 C154.719,19.086 156.073,18.726 157.186,17.934 C158.726,16.819 159.59,14.954 159.59,12.724 C159.59,11.029 159.086,9.671 158.053,8.558 C156.848,7.279 155.759,6.944 153.099,6.944 L146.969,6.944 L146.969,7.472 L148.782,8.194 L148.782,17.836 L146.969,18.535 L146.969,19.086 L152.808,19.086 Z" id="Shape"></path>
            <path d="M2.848,4.665 C3.146,4.535 3.523,4.469 3.939,4.469 C5.187,4.469 6.018,5.446 6.018,6.919 C6.018,8.523 5.108,9.461 3.563,9.461 C3.315,9.461 3.121,9.449 2.848,9.421 L2.848,4.665 Z M3.666,10.042 C5.746,10.042 7.251,8.575 7.251,6.555 C7.251,4.926 6.2,3.686 4.822,3.686 C4.433,3.686 3.601,3.973 2.848,4.377 L2.848,3.569 L0.586,4.077 L0.586,4.377 L1.692,4.717 L1.692,12.099 L0.586,12.502 L0.586,12.828 L4.212,12.828 L4.212,12.502 L2.848,12.099 L2.848,9.938 C3.108,10.017 3.329,10.042 3.666,10.042 Z" id="Shape"></path>
            <path d="M8.784,9.975 L8.784,9.653 L9.877,9.198 L9.877,4.732 L8.784,4.417 L8.784,4.117 L11.046,3.594 L11.046,4.417 L11.162,4.352 C12.022,3.909 12.608,3.686 12.972,3.686 C13.219,3.686 13.414,3.75 13.636,3.881 L13.636,5.317 L12.738,5.317 L12.347,4.547 C12.204,4.547 12.087,4.536 12.022,4.536 C11.722,4.536 11.358,4.613 11.046,4.732 L11.046,9.198 L12.4,9.653 L12.4,9.975 L8.784,9.975 Z" id="Shape"></path>
            <path d="M17.94,4.198 C19.087,4.198 19.75,5.254 19.75,7.067 C19.75,8.658 19.125,9.583 18.057,9.583 C16.924,9.583 16.247,8.553 16.247,6.805 C16.247,5.149 16.872,4.198 17.94,4.198 M17.888,10.166 C19.724,10.166 21.035,8.736 21.035,6.766 C21.035,4.889 19.842,3.616 18.07,3.616 C16.208,3.616 14.962,4.979 14.962,7.001 C14.962,8.867 16.169,10.166 17.888,10.166" id="Shape"></path>
            <path d="M25.009,10.112 L22.822,4.43 L22.028,4.079 L22.028,3.753 L25.009,3.753 L25.009,4.079 L24.111,4.43 L25.165,7.378 C25.321,7.806 25.424,8.172 25.554,8.694 L27.113,4.508 L26.243,4.079 L26.243,3.753 L28.766,3.753 L28.766,4.079 L28.011,4.508 L25.554,10.112 L25.009,10.112 Z" id="Shape"></path>
            <path d="M30.253,9.975 L30.253,9.653 L31.346,9.198 L31.346,4.717 L30.253,4.379 L30.253,4.093 L32.514,3.598 L32.514,9.198 L33.608,9.653 L33.608,9.975 L30.253,9.975 Z M31.151,1.516 C31.151,1.074 31.411,0.838 31.918,0.838 C32.462,0.838 32.71,1.046 32.71,1.502 C32.71,1.984 32.462,2.205 31.931,2.205 C31.411,2.205 31.151,1.984 31.151,1.516 Z" id="Shape"></path>
            <path d="M35.412,9.975 L35.412,9.653 L36.505,9.198 L36.505,4.732 L35.412,4.391 L35.412,4.103 L37.674,3.594 L37.674,4.326 C37.751,4.299 37.817,4.275 37.855,4.26 C37.92,4.236 38.14,4.157 38.491,4.027 C39.088,3.79 39.477,3.686 39.841,3.686 C40.347,3.686 40.788,3.881 41.126,4.236 C41.489,4.625 41.606,4.992 41.606,5.719 L41.606,9.198 L42.712,9.653 L42.712,9.975 L39.412,9.975 L39.412,9.653 L40.451,9.198 L40.451,5.967 C40.451,4.963 39.957,4.536 38.816,4.536 C38.439,4.536 38.011,4.575 37.674,4.625 L37.674,9.198 L38.647,9.653 L38.647,9.975 L35.412,9.975 Z" id="Shape"></path>
            <path d="M49.214,3.967 L49.214,5.31 L48.42,5.31 L47.847,4.15 C47.717,4.137 47.652,4.137 47.574,4.137 C46.298,4.137 45.322,5.256 45.322,6.77 C45.322,7.499 45.544,8.165 45.947,8.62 C46.39,9.129 46.923,9.337 47.77,9.337 C48.186,9.337 48.355,9.325 49.045,9.207 L49.176,9.182 L49.253,9.6 L49.123,9.639 L48.459,9.835 C47.861,10.018 47.326,10.111 46.845,10.111 C45.232,10.111 44.102,8.842 44.102,7.056 C44.102,5.033 45.505,3.685 47.6,3.685 C48.095,3.685 48.59,3.775 49.214,3.967" id="Shape"></path>
            <path d="M51.156,9.975 L51.156,9.653 L52.248,9.198 L52.248,4.717 L51.156,4.379 L51.156,4.093 L53.417,3.598 L53.417,9.198 L54.511,9.653 L54.511,9.975 L51.156,9.975 Z M52.053,1.516 C52.053,1.074 52.313,0.838 52.82,0.838 C53.365,0.838 53.612,1.046 53.612,1.502 C53.612,1.984 53.365,2.205 52.833,2.205 C52.313,2.205 52.053,1.984 52.053,1.516 Z" id="Shape"></path>
            <path d="M57.432,6.299 C57.549,4.892 58.057,4.202 58.981,4.202 C59.828,4.202 60.192,4.748 60.218,6.04 L57.432,6.299 Z M61.374,5.269 C61.115,4.32 60.205,3.684 59.098,3.684 C57.38,3.684 56.12,5.115 56.12,7.042 C56.12,8.87 57.276,10.111 58.981,10.111 C59.58,10.111 60.634,9.886 61.413,9.585 L61.348,9.169 C60.803,9.259 60.205,9.327 59.854,9.327 C59.176,9.327 58.603,9.142 58.2,8.804 C57.653,8.335 57.432,7.736 57.419,6.665 L61.517,6.665 C61.49,5.871 61.464,5.649 61.374,5.269 Z" id="Shape"></path>
        </g>
    </g>
</svg>